<?xml version="1.0" encoding="utf-8"?>
<!-- Generator: Adobe Illustrator 23.0.1, SVG Export Plug-In . SVG Version: 6.00 Build 0)  -->
<svg version="1.1" id="Capa_1" xmlns="http://www.w3.org/2000/svg" xmlns:xlink="http://www.w3.org/1999/xlink" x="0px" y="0px"
	 viewBox="0 0 172 20.6" style="enable-background:new 0 0 172 20.6;" xml:space="preserve">
<style type="text/css">
	.st0{fill:#1F211F;}
	.st1{fill:#FF6600;}
</style>
<g>
	<path class="st0" d="M11.3,13.2H4.1v2c0,1.5,0.2,2.5,0.7,3.2c0.5,0.7,1.2,1,2.2,1c1,0,1.8-0.4,2.6-1.1c0.7-0.7,1.3-1.7,1.6-2.9h0.4
		c-0.3,1.4-0.9,2.6-1.8,3.4c-0.9,0.8-2,1.2-3.4,1.2c-1.8,0-3.3-0.6-4.5-1.8c-1.2-1.2-1.7-2.7-1.7-4.5c0-1.7,0.6-3.1,1.7-4.3
		c1.1-1.2,2.5-1.8,4.1-1.8c1.5,0,2.7,0.5,3.7,1.6C10.8,10.2,11.3,11.5,11.3,13.2 M7.5,12.8v-2c0-1.1-0.1-1.9-0.4-2.3
		C6.8,8.2,6.4,8,5.8,8C5.1,8,4.7,8.2,4.5,8.6C4.2,9,4.1,9.8,4.1,11.1v1.7H7.5z"/>
	<path class="st0" d="M14.1,1.4h-1.5V0.9h2.2c0.7,0,1.3,0,1.8-0.1c0.4-0.1,0.8-0.1,1.2-0.2v18.6h1.6v0.4h-6.9v-0.4h1.6V1.4z"/>
	<path class="st1" d="M20.2,19.6v-0.4h2.2V1.4h-2.2V0.9h14.8v5.1h-0.4c-0.2-1.7-0.7-2.9-1.5-3.6c-0.8-0.7-2.1-1.1-4-1.1h-2.6v8.2
		h1.5c0.9,0,1.6-0.3,2.1-0.9C30.6,8,30.9,7.1,30.9,6V5.7h0.4v8.1h-0.4v-0.2c0-1.1-0.2-2-0.7-2.7C29.6,10.3,29,10,28.1,10h-1.5v9.2
		h2.7c2.2,0,3.7-0.4,4.7-1.3c0.9-0.9,1.4-2.3,1.4-4.3h0.4v6H20.2z"/>
	<path class="st1" d="M48.4,15.9h0.4c-0.2,1.3-0.8,2.3-1.6,3c-0.8,0.7-1.9,1-3.3,1c-1.8,0-3.3-0.6-4.6-1.8c-1.2-1.2-1.8-2.6-1.8-4.3
		c0-0.9,0.2-1.8,0.6-2.6c0.4-0.8,1-1.5,1.7-2.2c0.6-0.5,1.3-0.9,2-1.2c0.7-0.3,1.5-0.4,2.2-0.4c1.4,0,2.5,0.3,3.3,0.9
		c0.8,0.6,1.3,1.4,1.3,2.3c0,0.5-0.2,1-0.5,1.3c-0.3,0.3-0.7,0.5-1.3,0.5c-0.6,0-1-0.2-1.3-0.5c-0.3-0.3-0.5-0.7-0.5-1.3
		c0-0.4,0.2-0.8,0.5-1.2C45.8,9.1,46,8.9,46,8.9c0-0.3-0.2-0.5-0.5-0.6C45.1,8.1,44.7,8,44.1,8c-1,0-1.6,0.3-2,0.9
		c-0.4,0.6-0.6,1.7-0.6,3.4v2.6c0,1.7,0.2,2.9,0.6,3.6c0.4,0.7,1.2,1,2.2,1c1,0,1.8-0.3,2.6-1C47.6,17.9,48.1,17,48.4,15.9"/>
	<path class="st1" d="M50,13.8c0-0.8,0.2-1.6,0.5-2.4c0.3-0.8,0.8-1.5,1.5-2.1c0.6-0.6,1.3-1,2-1.3c0.7-0.3,1.5-0.4,2.3-0.4
		c0.8,0,1.6,0.1,2.4,0.4c0.7,0.3,1.4,0.7,2,1.3c0.7,0.6,1.2,1.3,1.5,2.1c0.3,0.8,0.5,1.6,0.5,2.4c0,0.8-0.2,1.6-0.5,2.4
		c-0.3,0.8-0.8,1.4-1.5,2.1c-0.6,0.6-1.3,1-2,1.3c-0.7,0.3-1.5,0.4-2.3,0.4c-1.8,0-3.3-0.6-4.5-1.8C50.6,16.9,50,15.5,50,13.8
		 M58.7,15.3v-3.1c0-1.7-0.2-2.8-0.5-3.4c-0.4-0.6-1-0.8-1.9-0.8s-1.5,0.3-1.9,0.8c-0.4,0.6-0.5,1.7-0.5,3.4v3.1
		c0,1.7,0.2,2.8,0.5,3.4c0.4,0.6,1,0.8,1.9,0.8s1.5-0.3,1.9-0.8C58.5,18.1,58.7,17,58.7,15.3"/>
	<path class="st0" d="M68.9,19.2h1.6v0.4h-6.9v-0.4h1.6V8.3h-1.6V7.9h2.2c0.7,0,1.2,0,1.7-0.1c0.5-0.1,0.9-0.1,1.3-0.3v2.6
		c0.5-0.9,1.1-1.5,1.9-1.9c0.7-0.4,1.6-0.7,2.5-0.7c1.2,0,2.1,0.3,2.8,0.9c0.7,0.6,1,1.5,1,2.6v8.2h1.6v0.4h-6.8v-0.4h1.5v-8.7
		c0-0.8-0.1-1.3-0.3-1.6c-0.2-0.3-0.6-0.4-1.1-0.4c-0.8,0-1.5,0.3-2.1,1c-0.6,0.7-0.8,1.6-0.8,2.6V19.2z"/>
	<path class="st0" d="M79.5,13.8c0-0.8,0.2-1.6,0.5-2.4c0.3-0.8,0.8-1.5,1.5-2.1c0.6-0.6,1.3-1,2-1.3c0.7-0.3,1.5-0.4,2.3-0.4
		c0.8,0,1.6,0.1,2.4,0.4c0.7,0.3,1.4,0.7,2,1.3c0.7,0.6,1.2,1.3,1.5,2.1c0.3,0.8,0.5,1.6,0.5,2.4c0,0.8-0.2,1.6-0.5,2.4
		c-0.3,0.8-0.8,1.4-1.5,2.1c-0.6,0.6-1.3,1-2,1.3c-0.7,0.3-1.5,0.4-2.3,0.4c-1.8,0-3.3-0.6-4.5-1.8C80.1,16.9,79.5,15.5,79.5,13.8
		 M88.3,15.3v-3.1c0-1.7-0.2-2.8-0.5-3.4c-0.4-0.6-1-0.8-1.9-0.8C85,8,84.4,8.3,84,8.8c-0.4,0.6-0.5,1.7-0.5,3.4v3.1
		c0,1.7,0.2,2.8,0.5,3.4c0.4,0.6,1,0.8,1.9,0.8c0.9,0,1.5-0.3,1.9-0.8C88.1,18.1,88.3,17,88.3,15.3"/>
	<path class="st0" d="M109.1,19.6v-0.4h1.5v-8.7c0-0.8-0.1-1.3-0.3-1.6c-0.2-0.3-0.6-0.4-1.1-0.4c-0.8,0-1.5,0.3-2.1,1
		c-0.5,0.7-0.8,1.6-0.8,2.6v7.1h1.5v0.4h-6.7v-0.4h1.5v-8.7c0-0.8-0.1-1.3-0.3-1.6c-0.2-0.3-0.6-0.4-1.1-0.4c-0.8,0-1.5,0.3-2.1,1
		c-0.5,0.7-0.8,1.6-0.8,2.6v7.1h1.5v0.4h-6.7v-0.4h1.6V8.3h-1.6V7.9h2.1c0.6,0,1.2,0,1.6-0.1c0.5-0.1,0.9-0.1,1.3-0.3v2.6
		c0.5-0.9,1.1-1.5,1.8-2c0.7-0.4,1.5-0.7,2.4-0.7c1,0,1.8,0.2,2.5,0.7c0.7,0.5,1.1,1.1,1.2,1.9c0.5-0.8,1.1-1.5,1.8-1.9
		c0.7-0.4,1.5-0.7,2.4-0.7c1.2,0,2.1,0.3,2.8,0.9c0.7,0.6,1,1.5,1,2.6v8.2h1.5v0.4H109.1z"/>
	<path class="st0" d="M118.2,8.3h-1.6V7.9h2.2c0.6,0,1.2,0,1.7-0.1c0.5-0.1,1-0.1,1.4-0.3v11.7h1.6v0.4h-6.9v-0.4h1.6V8.3z M118,2.7
		c0-0.6,0.2-1.1,0.6-1.5c0.4-0.4,0.9-0.6,1.5-0.6c0.6,0,1.1,0.2,1.5,0.6c0.4,0.4,0.6,0.9,0.6,1.4c0,0.6-0.2,1.1-0.6,1.5
		c-0.4,0.4-0.9,0.6-1.5,0.6c-0.6,0-1.1-0.2-1.5-0.6C118.2,3.8,118,3.3,118,2.7"/>
	<path class="st0" d="M125,19.9v-4.4h0.4c0.6,1.4,1.3,2.4,2,3c0.7,0.6,1.6,1,2.5,1c0.7,0,1.3-0.2,1.8-0.6c0.4-0.4,0.7-1,0.7-1.7
		c0-0.9-0.9-1.5-2.7-1.8c-0.4-0.1-0.7-0.1-0.9-0.1c-1.4-0.2-2.3-0.6-2.9-1.2c-0.6-0.6-0.9-1.4-0.9-2.4c0-1.2,0.4-2.2,1.2-3
		c0.8-0.8,1.7-1.2,2.9-1.2c0.6,0,1.2,0.1,1.8,0.3c0.7,0.2,1,0.3,1.1,0.3c0.2,0,0.3,0,0.4-0.1c0.1-0.1,0.2-0.2,0.3-0.4h0.5v3.8h-0.5
		c-0.4-1.1-0.9-2-1.5-2.6c-0.6-0.6-1.4-0.8-2.3-0.8c-0.7,0-1.3,0.2-1.7,0.6c-0.5,0.4-0.7,0.9-0.7,1.5c0,0.3,0.1,0.5,0.2,0.7
		c0.1,0.2,0.3,0.4,0.6,0.6c0.3,0.2,0.8,0.3,1.6,0.3c0.8,0.1,1.5,0.2,1.9,0.3c1.1,0.3,1.9,0.7,2.4,1.2c0.5,0.6,0.7,1.4,0.7,2.4
		c0,1.3-0.4,2.4-1.2,3.2c-0.8,0.8-1.9,1.2-3.2,1.2c-0.4,0-1-0.1-1.6-0.3c-0.7-0.2-1.1-0.3-1.4-0.3c-0.3,0-0.6,0-0.8,0.1
		c-0.2,0.1-0.3,0.2-0.4,0.5H125z"/>
	<path class="st0" d="M135.1,7.9L135.1,7.9c1.3,0,2.3-0.5,3.1-1.4c0.8-1,1.4-2.3,1.6-4.1h0.4v5.5h2.5v0.4h-2.5v8.8
		c0,0.6,0.1,1.1,0.2,1.4c0.1,0.3,0.4,0.4,0.7,0.4c0.3,0,0.6-0.1,0.8-0.3c0.3-0.2,0.5-0.5,0.7-0.8l0.4,0.2c-0.3,0.6-0.8,1.1-1.4,1.4
		c-0.6,0.3-1.3,0.5-2,0.5c-1.1,0-1.9-0.3-2.4-0.9c-0.5-0.6-0.7-1.6-0.7-3.1V8.3h-1.5V7.9z"/>
	<path class="st0" d="M154.9,16.7c0,0.7,0.1,1.3,0.2,1.5c0.1,0.3,0.3,0.4,0.6,0.4c0.2,0,0.4-0.1,0.6-0.3c0.2-0.2,0.3-0.5,0.4-1h0.4
		c-0.1,0.8-0.4,1.4-0.9,1.9c-0.5,0.5-1.2,0.7-1.9,0.7c-0.7,0-1.3-0.1-1.8-0.4c-0.4-0.3-0.8-0.7-1-1.4c-0.3,0.6-0.7,1.1-1.2,1.4
		c-0.6,0.3-1.2,0.5-2,0.5c-1.6,0-2.8-0.3-3.6-0.9c-0.8-0.6-1.3-1.4-1.3-2.5c0-1.3,0.7-2.2,2-2.9c1.3-0.6,3.3-0.9,6-0.9v-1.7
		c0-1.3-0.2-2.2-0.5-2.6c-0.4-0.4-1-0.6-2.1-0.6c-0.6,0-1.1,0.1-1.5,0.3c-0.4,0.2-0.6,0.4-0.6,0.6c0,0.1,0.1,0.2,0.4,0.3
		c0.2,0.2,0.4,0.3,0.6,0.4c0.1,0.1,0.2,0.3,0.3,0.4c0.1,0.2,0.1,0.4,0.1,0.6c0,0.5-0.1,0.8-0.4,1.1c-0.3,0.3-0.7,0.4-1.2,0.4
		c-0.6,0-1-0.1-1.3-0.4c-0.3-0.3-0.5-0.7-0.5-1.2c0-0.9,0.4-1.6,1.3-2.1c0.9-0.5,2-0.8,3.5-0.8c0.8,0,1.6,0.1,2.2,0.2
		c0.7,0.2,1.3,0.4,1.8,0.7c0.6,0.3,0.9,0.7,1.2,1.2c0.2,0.5,0.3,1.2,0.3,2.1V16.7z M151.4,13.2h-0.2c-1.6,0-2.7,0.2-3.2,0.6
		c-0.5,0.4-0.8,1.2-0.8,2.3c0,1.1,0.1,2,0.4,2.4c0.3,0.5,0.8,0.7,1.5,0.7c0.8,0,1.3-0.3,1.7-0.8c0.4-0.5,0.6-1.3,0.6-2.4V13.2z"/>
	<path class="st0" d="M157.7,18.8c0-0.3,0.1-0.5,0.3-0.7c0.2-0.2,0.4-0.3,0.7-0.3c0.3,0,0.5,0.1,0.7,0.3c0.2,0.2,0.3,0.4,0.3,0.7
		c0,0.3-0.1,0.5-0.3,0.7c-0.2,0.2-0.4,0.3-0.7,0.3c-0.3,0-0.5-0.1-0.7-0.3C157.8,19.4,157.7,19.1,157.7,18.8"/>
	<path class="st0" d="M166.4,16.6h-3.6v1c0,0.7,0.1,1.3,0.3,1.6c0.2,0.3,0.6,0.5,1.1,0.5c0.5,0,0.9-0.2,1.3-0.5
		c0.4-0.4,0.6-0.8,0.8-1.5h0.2c-0.1,0.7-0.4,1.3-0.9,1.7c-0.5,0.4-1,0.6-1.7,0.6c-0.9,0-1.6-0.3-2.2-0.9c-0.6-0.6-0.9-1.3-0.9-2.2
		c0-0.8,0.3-1.6,0.9-2.2c0.6-0.6,1.3-0.9,2.1-0.9c0.7,0,1.4,0.3,1.9,0.8C166.2,15.1,166.4,15.8,166.4,16.6 M164.5,16.4v-1
		c0-0.6-0.1-0.9-0.2-1.1c-0.1-0.2-0.3-0.3-0.7-0.3c-0.3,0-0.5,0.1-0.6,0.3c-0.1,0.2-0.2,0.6-0.2,1.2v0.9H164.5z"/>
	<path class="st0" d="M167.3,20v-2.2h0.2c0.3,0.7,0.6,1.2,1,1.5c0.4,0.3,0.8,0.5,1.2,0.5c0.4,0,0.7-0.1,0.9-0.3
		c0.2-0.2,0.3-0.5,0.3-0.8c0-0.5-0.5-0.7-1.4-0.9c-0.2,0-0.3-0.1-0.4-0.1c-0.7-0.1-1.2-0.3-1.5-0.6c-0.3-0.3-0.4-0.7-0.4-1.2
		c0-0.6,0.2-1.1,0.6-1.5c0.4-0.4,0.9-0.6,1.4-0.6c0.3,0,0.6,0.1,0.9,0.2c0.3,0.1,0.5,0.2,0.5,0.2c0.1,0,0.2,0,0.2-0.1
		c0.1,0,0.1-0.1,0.2-0.2h0.2v1.9h-0.2c-0.2-0.6-0.4-1-0.7-1.3c-0.3-0.3-0.7-0.4-1.2-0.4c-0.3,0-0.6,0.1-0.9,0.3
		c-0.2,0.2-0.3,0.4-0.3,0.7c0,0.1,0,0.3,0.1,0.4c0.1,0.1,0.2,0.2,0.3,0.3c0.1,0.1,0.4,0.1,0.8,0.2c0.4,0,0.7,0.1,1,0.1
		c0.6,0.1,1,0.3,1.2,0.6c0.2,0.3,0.4,0.7,0.4,1.2c0,0.7-0.2,1.2-0.6,1.6c-0.4,0.4-0.9,0.6-1.6,0.6c-0.2,0-0.5-0.1-0.8-0.2
		c-0.3-0.1-0.6-0.2-0.7-0.2c-0.2,0-0.3,0-0.4,0.1c-0.1,0-0.2,0.1-0.2,0.2H167.3z"/>
</g>
</svg>
