<?xml version="1.0" encoding="UTF-8" standalone="no"?>
<svg
   xmlns:dc="http://purl.org/dc/elements/1.1/"
   xmlns:cc="http://creativecommons.org/ns#"
   xmlns:rdf="http://www.w3.org/1999/02/22-rdf-syntax-ns#"
   xmlns:svg="http://www.w3.org/2000/svg"
   xmlns="http://www.w3.org/2000/svg"
   viewBox="0 0 706.77332 128.50667"
   height="128.50667"
   width="706.77332"
   xml:space="preserve"
   id="svg2"
   version="1.1"><metadata
     id="metadata8"><rdf:RDF><cc:Work
         rdf:about=""><dc:format>image/svg+xml</dc:format><dc:type
           rdf:resource="http://purl.org/dc/dcmitype/StillImage" /></cc:Work></rdf:RDF></metadata><defs
     id="defs6" /><g
     transform="matrix(1.3333333,0,0,-1.3333333,0,128.50667)"
     id="g10"><g
       transform="scale(0.1)"
       id="g12"><path
         id="path14"
         style="fill:#151922;fill-opacity:1;fill-rule:nonzero;stroke:none"
         d="m 2467.05,735.355 c -33.28,0 -65.05,-12.359 -94.37,-36.683 -10.17,-8.332 -19.27,-17.859 -27.06,-28.305 -2.78,-3.726 -5.81,-8.109 -9.07,-13.129 v 81.555 l -12.17,-2.699 c -11.53,-2.563 -21.2,-4.516 -28.75,-5.809 -7.51,-1.301 -14.61,-2.43 -21.3,-3.39 -6.39,-0.934 -13.31,-1.567 -20.58,-1.883 -7.51,-0.324 -17.09,-0.477 -28.77,-0.477 h -10 V 219.781 h 121.57 v 304 c 0,9.684 1.33,20.145 3.96,31.114 2.69,11.285 6.26,22.769 10.62,34.144 4.24,11.098 9.48,21.566 15.59,31.137 6.06,9.504 12.38,17.781 18.53,24.367 10.57,10.602 22.38,15.754 36.1,15.754 12.84,0 21.44,-3.652 26.3,-11.168 3.9,-6.051 8.56,-19.227 8.56,-47.672 V 219.781 h 119.86 v 390.535 c 0,37.704 -9.78,68.184 -29.08,90.586 -19.68,22.86 -46.57,34.453 -79.94,34.453" /><path
         id="path16"
         style="fill:#151922;fill-opacity:1;fill-rule:nonzero;stroke:none"
         d="m 2121.09,399.891 c 1.65,-16.61 2.48,-30.84 2.48,-42.278 0,-28.914 -7.79,-52.886 -23.18,-71.258 -15.12,-18.093 -34.02,-26.886 -57.78,-26.886 -12.44,0 -24.43,3.066 -35.65,9.113 -11.15,6.016 -19.16,13.574 -24.48,23.094 -4.82,8.676 -8.89,17.601 -12.09,26.554 -3.18,8.829 -5.89,19.825 -8.06,32.696 -2.18,12.937 -3.72,28.418 -4.54,45.984 -0.75,15.637 -1.37,34.746 -1.89,56.899 h 227.46 v 10 c 0,29.519 -1.01,56.113 -3,79.043 -2.03,23.093 -5.4,43.675 -10.03,61.171 -4.69,17.672 -10.95,33.938 -18.61,48.348 -7.67,14.399 -17.27,27.981 -28.51,40.367 -12.22,13.465 -27.79,24.231 -46.29,32.012 -18.39,7.684 -37.49,11.582 -56.75,11.582 -28.73,0 -55.44,-6.887 -79.41,-20.469 -23.82,-13.488 -44.31,-32.718 -60.91,-57.168 -16.37,-24.121 -29.23,-53.254 -38.2,-86.586 -8.94,-33.125 -13.47,-70.558 -13.47,-111.25 0,-79.269 17.08,-141.535 50.76,-185.089 34.3,-44.325 83.52,-66.805 146.3,-66.805 33.09,0 62.15,6.512 86.36,19.363 24.61,13.067 43.27,31.887 55.47,55.996 6.6,13.235 11.31,27.364 14.01,41.985 2.63,14.246 4.48,33.671 5.65,59.363 l 0.35,7.629 -67.49,21.785 z m -104.72,283.988 c 6.81,0 27.55,0 40.68,-42.035 4.32,-14.395 7.63,-32.465 9.84,-53.699 2.03,-19.622 3.61,-45.477 4.72,-76.969 h -115.62 c 0.53,16.156 1.27,30.179 2.21,41.793 1.13,13.969 2.25,25.984 3.38,36.066 1.1,9.84 2.34,18.137 3.7,24.68 1.35,6.551 2.85,12.742 4.39,18.062 5.74,17.481 13,30.93 21.58,39.973 7.76,8.164 15.98,12.129 25.12,12.129" /><path
         id="path18"
         style="fill:#151922;fill-opacity:1;fill-rule:nonzero;stroke:none"
         d="m 295.07,559.016 h 177.758 v 65.226 H 295.07 v 202.215 h 209.914 v 69.16 H 160.816 V 219.781 h 375.489 v 68.188 H 295.07 v 271.047" /><path
         id="path20"
         style="fill:#151922;fill-opacity:1;fill-rule:nonzero;stroke:none"
         d="m 1004.33,737.309 c -28.045,0 -53.416,-8.082 -75.416,-24.024 -16.906,-12.254 -33.152,-30.031 -48.457,-53 -7.902,23.91 -17.426,41.328 -28.871,52.926 -15.184,15.34 -36.551,23.121 -63.5,23.121 -28.578,0 -53.934,-7.738 -75.352,-23 -14.554,-10.363 -29.136,-25.684 -43.55,-45.703 v 71.184 L 657,736.094 c -11.727,-2.625 -21.355,-4.75 -28.906,-6.379 -7.254,-1.57 -14.067,-2.672 -20.262,-3.266 -6.547,-0.636 -13.641,-1.113 -21.269,-1.437 -7.719,-0.324 -17.379,-0.477 -28.946,-0.477 h -10 V 219.781 h 121.567 v 301.696 c 0,20.242 1.929,39.421 5.738,57.015 3.754,17.367 9.156,32.539 16.055,45.11 6.66,12.144 14.492,21.687 23.277,28.367 8.234,6.261 16.719,9.304 25.922,9.304 12.359,0 16.758,-5.253 19.004,-9.218 3.105,-5.481 6.804,-17.532 6.804,-43.848 V 219.781 h 121.571 v 302.684 c 0,20.191 2.05,39.332 6.086,56.883 4.019,17.441 9.539,32.668 16.398,45.265 6.602,12.149 14.375,21.684 23.106,28.36 8.148,6.246 16.82,9.277 26.507,9.277 9.426,0 15.707,-3.156 19.786,-9.93 3.398,-5.656 7.457,-17.91 7.457,-44.113 V 219.781 h 121.575 v 393.485 c 0,37.617 -9.35,67.886 -27.78,89.968 -18.86,22.61 -44.56,34.075 -76.36,34.075" /><path
         id="path22"
         style="fill:#151922;fill-opacity:1;fill-rule:nonzero;stroke:none"
         d="m 1840.59,645.707 c 0,26.828 -5.97,48.481 -17.72,64.348 -12.45,16.785 -30.18,25.3 -52.7,25.3 -35.23,0 -65.24,-22.171 -89.56,-66.039 v 70.2 l -12.69,-3.555 c -11.37,-3.184 -20.43,-5.43 -26.95,-6.695 -6.58,-1.297 -13.01,-2.407 -19.3,-3.375 -6.13,-0.938 -13.09,-1.563 -20.73,-1.856 -7.83,-0.324 -18.26,-0.488 -31.89,-0.488 h -10 V 219.781 h 121.56 v 301.696 c 0,10.64 0.97,22.41 2.88,34.988 1.9,12.629 4.55,24.98 7.86,36.715 3.29,11.722 7.18,22.925 11.57,33.328 4.23,10.082 8.75,18.555 13.37,25.047 4.37,5.965 9.42,8.742 15.87,8.742 5.55,0 13.94,0 13.94,-19.504 0,-4.359 -0.13,-8.566 -0.4,-12.605 -0.27,-3.879 -0.93,-8.606 -1.96,-14.024 -1.12,-5.844 -2.66,-13.316 -4.61,-22.394 -1.97,-9.145 -4.63,-20.879 -8,-35.219 l -2.89,-12.289 h 95.74 l 1.91,7.547 c 5.68,22.492 9.59,40.675 11.62,54.074 2.04,13.555 3.08,26.953 3.08,39.824" /><path
         id="path24"
         style="fill:#151922;fill-opacity:1;fill-rule:nonzero;stroke:none"
         d="m 1461.44,698.969 c -24.01,24.144 -51.63,36.386 -82.07,36.386 -27.4,0 -53.73,-11.109 -78.31,-33.078 -8.64,-7.843 -15.99,-16.687 -21.83,-26.285 -0.49,-0.797 -0.99,-1.629 -1.5,-2.492 v 65.313 l -12.18,-2.719 c -11.72,-2.625 -21.36,-4.75 -28.9,-6.379 -7.27,-1.578 -14.25,-2.86 -20.74,-3.813 -6.43,-0.941 -13.42,-1.574 -20.8,-1.867 -7.72,-0.336 -17.37,-0.488 -28.93,-0.488 h -10 V 55.582 h 121.55 v 194.184 c 1.87,-2.286 3.73,-4.453 5.56,-6.485 7.96,-8.871 16.44,-16.105 25.2,-21.496 8.96,-5.539 18.78,-9.441 29.19,-11.609 9.98,-2.102 21.7,-3.164 34.86,-3.164 49.65,0 88.83,24.168 116.46,71.832 26.62,45.922 40.12,110.14 40.12,190.859 0,53.781 -5.44,99.715 -16.17,136.527 -10.91,37.415 -28.2,68.583 -51.51,92.739 z m -117.93,-31.797 c 6.96,0 13.67,-2.422 20.5,-7.406 7.1,-5.172 12.43,-12.02 16.55,-21.442 7.39,-14.613 12.78,-34.492 16.03,-59.086 3.34,-25.226 5.04,-59.273 5.04,-101.191 0,-39.387 -1.28,-73.234 -3.79,-100.606 -2.48,-26.914 -6.48,-48.769 -11.87,-64.953 -5.09,-15.207 -11.54,-26.269 -19.19,-32.871 -7.28,-6.289 -16.29,-9.344 -27.52,-9.344 -15.95,0 -28.01,6.278 -37.02,19.403 -5.18,7.14 -9.36,14.656 -12.45,22.394 -3.12,7.774 -5.64,17.606 -7.49,29.239 -1.94,12.089 -3.34,26.902 -4.15,44.031 -0.83,17.324 -1.26,39.269 -1.26,65.246 0,27.266 0.43,50.879 1.26,70.18 0.82,19.109 2.23,35.957 4.18,50.082 1.88,13.687 4.35,25.527 7.33,35.199 2.9,9.433 6.77,18.523 11.56,27.113 12.42,22.887 26.25,34.012 42.29,34.012" /><path
         id="path26"
         style="fill:#151922;fill-opacity:1;fill-rule:nonzero;stroke:none"
         d="m 4737.23,399.891 c 1.65,-16.582 2.49,-30.813 2.49,-42.278 0,-28.914 -7.79,-52.886 -23.18,-71.258 -15.13,-18.093 -34.03,-26.886 -57.79,-26.886 -12.43,0 -24.42,3.066 -35.64,9.113 -11.14,6.016 -19.16,13.574 -24.47,23.094 -4.87,8.73 -8.93,17.656 -12.1,26.554 -3.19,8.86 -5.9,19.856 -8.05,32.696 -2.19,12.883 -3.72,28.351 -4.56,45.984 -0.73,15.442 -1.36,34.543 -1.89,56.899 h 227.47 v 10 c 0,29.535 -1.01,56.125 -3,79.043 -2.02,23.074 -5.4,43.656 -10.03,61.164 -4.68,17.672 -10.94,33.937 -18.61,48.359 -7.7,14.414 -17.28,27.992 -28.51,40.363 -12.22,13.465 -27.78,24.231 -46.29,32.012 -18.39,7.684 -37.48,11.582 -56.76,11.582 -28.71,0 -55.43,-6.887 -79.42,-20.469 -23.81,-13.488 -44.3,-32.718 -60.89,-57.168 -16.37,-24.117 -29.22,-53.25 -38.2,-86.586 -8.94,-33.14 -13.47,-70.57 -13.47,-111.25 0,-79.269 17.08,-141.535 50.76,-185.089 34.3,-44.325 83.52,-66.805 146.29,-66.805 33.11,0 62.16,6.512 86.37,19.363 24.62,13.078 43.27,31.895 55.47,55.996 6.6,13.242 11.32,27.371 14.01,41.985 2.63,14.207 4.47,33.632 5.65,59.363 l 0.36,7.629 -67.52,21.785 z m -104.72,283.988 c 6.82,0 27.56,0 40.69,-42.035 4.32,-14.403 7.63,-32.473 9.83,-53.699 2.04,-19.625 3.62,-45.481 4.73,-76.969 h -115.64 c 0.55,16.219 1.3,30.242 2.24,41.801 1.11,13.968 2.25,25.98 3.38,36.054 1.1,9.867 2.34,18.172 3.68,24.68 1.36,6.57 2.87,12.766 4.39,18.066 5.75,17.481 13.01,30.93 21.59,39.981 7.76,8.156 15.97,12.121 25.11,12.121" /><path
         id="path28"
         style="fill:#151922;fill-opacity:1;fill-rule:nonzero;stroke:none"
         d="m 5114.01,460.035 c -4.63,6.047 -9.72,11.977 -15.17,17.629 -5.49,5.664 -12.11,11.199 -19.67,16.477 -7.29,5.07 -16.17,10.41 -26.41,15.867 -9.91,5.254 -21.95,11.5 -36.4,18.898 -37.69,17.758 -64.1,33.973 -78.48,48.192 -13.38,13.257 -19.89,27.976 -19.89,45.015 0,17.707 5.97,32.282 18.23,44.543 12.27,12.262 26.57,18.219 43.73,18.219 12.16,0 24.08,-3.484 35.43,-10.355 11.47,-6.957 20.57,-16.043 26.82,-26.598 4.04,-7.668 7.01,-15.746 8.8,-23.984 1.82,-8.458 2.73,-18.997 2.73,-31.329 v -7.382 c 0,-3.11 -0.26,-6.836 -0.77,-11.079 l -1.75,-14.347 74.57,18.179 -0.42,8.282 c -1.21,22.582 -3.67,40.332 -7.56,54.285 -4.01,14.285 -11.27,28.328 -21.49,41.601 -26.14,35.305 -64.72,53.207 -114.68,53.207 -24.22,0 -46.76,-3.859 -67,-11.464 -20.39,-7.676 -38.17,-18.637 -52.88,-32.582 -14.75,-14.012 -26.48,-30.813 -34.85,-49.938 -8.43,-19.219 -12.7,-40.258 -12.7,-62.531 0,-36.258 11.13,-68.617 33.06,-96.184 21.44,-26.965 55.22,-51.562 100.48,-73.125 17.6,-8.301 32.38,-16.078 43.93,-23.097 11.07,-6.731 19.82,-13.329 26,-19.598 5.63,-5.734 9.53,-11.856 11.57,-18.184 2.21,-6.847 3.33,-14.746 3.33,-23.476 0,-19.082 -5.7,-34.16 -17.44,-46.098 -11.69,-11.883 -26.52,-17.652 -45.34,-17.652 -12.09,0 -23.82,2.519 -34.85,7.48 -11.17,5.008 -21.06,12.02 -29.42,20.86 -8.42,8.894 -15.15,19.429 -20.01,31.328 -4.84,11.804 -7.29,24.754 -7.29,38.496 0,4.773 0.4,10.105 1.18,15.848 0.84,6.191 1.81,13.222 2.95,21.066 l 2.11,14.687 -78.04,-19.242 0.17,-7.996 c 0.57,-27.598 3.26,-50.109 7.98,-66.894 4.87,-17.325 13.76,-33.938 26.3,-49.192 30.64,-39.082 76.86,-58.902 137.38,-58.902 16.91,0 33.3,1.734 48.75,5.164 15.72,3.535 29.55,8.918 41,15.93 22.36,13.308 40.4,32.636 53.65,57.461 13.13,24.628 19.79,51.851 19.79,80.918 0,33.328 -9.1,63.964 -27.43,91.597" /><path
         id="path30"
         style="fill:#151922;fill-opacity:1;fill-rule:nonzero;stroke:none"
         d="m 2935.27,901.379 c -7.6,-1.309 -14.77,-2.43 -21.52,-3.402 -6.53,-0.946 -13.37,-1.579 -20.35,-1.872 -7.11,-0.324 -16.44,-0.488 -28.56,-0.488 h -10 V 682.531 c -8.48,13.844 -17.31,24.664 -26.63,32.703 -17.04,14.649 -38.89,22.075 -64.92,22.075 -39.12,0 -73.06,-17.457 -100.8,-51.758 -36.91,-44.258 -55.64,-115.555 -55.64,-211.899 0,-83.285 12.67,-148.429 37.64,-193.625 26.04,-47.16 64.3,-71.062 113.72,-71.062 12.93,0 24.82,1.055 35.39,3.144 10.98,2.196 21.17,6.09 30.27,11.571 8.96,5.39 17.51,12.433 25.44,20.929 1.84,1.969 3.68,4.063 5.53,6.27 v -31.098 h 121.58 v 688.414 l -11.61,-1.898 c -11.97,-1.953 -21.82,-3.609 -29.54,-4.918 z M 2833.41,643.613 c 4.68,-7.859 8.51,-16.261 11.35,-24.953 2.91,-8.961 5.2,-20.199 6.77,-33.433 1.66,-13.711 2.92,-30.606 3.75,-50.215 0.84,-20.016 1.27,-44.457 1.27,-72.649 0,-27.57 -0.29,-50.898 -0.84,-69.355 -0.56,-17.785 -1.8,-32.871 -3.69,-44.836 -1.89,-11.777 -4.41,-21.817 -7.51,-29.871 -3.09,-8.059 -7.31,-16.153 -12.37,-23.801 -4.23,-5.984 -9.71,-10.957 -16.33,-14.773 -14.05,-8.157 -30.6,-7.434 -44.67,2.488 -7.84,5.48 -13.49,12.441 -17.47,21.672 -7.37,15.203 -12.46,35.547 -15.16,60.468 -2.76,25.586 -4.16,61.864 -4.16,107.809 0,71.922 5.12,124.707 15.19,156.906 13.46,43.024 34.06,43.024 40.83,43.024 7.72,0 15.25,-2.383 23,-7.293 7.91,-5 14.65,-12.121 20.04,-21.188" /><path
         id="path32"
         style="fill:#151922;fill-opacity:1;fill-rule:nonzero;stroke:none"
         d="m 4456.73,645.707 c 0,26.84 -5.95,48.488 -17.71,64.348 -12.45,16.785 -30.18,25.3 -52.7,25.3 -35.22,0 -65.24,-22.175 -89.56,-66.046 v 70.207 l -12.69,-3.555 c -11.38,-3.184 -20.43,-5.434 -26.96,-6.695 -6.57,-1.297 -12.99,-2.407 -19.29,-3.375 -6.13,-0.938 -13.09,-1.563 -20.74,-1.856 -7.81,-0.324 -18.25,-0.488 -31.89,-0.488 h -10 V 219.781 h 121.57 v 301.696 c 0,10.613 0.97,22.382 2.88,34.988 1.9,12.601 4.54,24.953 7.86,36.719 3.29,11.683 7.17,22.886 11.57,33.324 4.23,10.097 8.77,18.562 13.38,25.055 4.36,5.957 9.41,8.734 15.86,8.734 5.55,0 13.93,0 13.93,-19.504 0,-4.359 -0.13,-8.566 -0.4,-12.613 -0.25,-3.844 -0.91,-8.567 -1.95,-14.028 -1.13,-5.839 -2.66,-13.304 -4.61,-22.382 -1.98,-9.145 -4.64,-20.883 -8,-35.231 l -2.88,-12.277 h 95.74 l 1.9,7.554 c 5.69,22.532 9.59,40.719 11.61,54.051 2.05,13.512 3.08,26.914 3.08,39.84" /><path
         id="path34"
         style="fill:#151922;fill-opacity:1;fill-rule:nonzero;stroke:none"
         d="m 3957.1,736.332 c -59.44,0 -106.35,-23.406 -139.43,-69.555 -32.33,-45.129 -48.73,-109.113 -48.73,-190.175 0,-85.61 15.94,-152.032 47.37,-197.434 32.23,-46.582 79.6,-70.203 140.79,-70.203 60.05,0 106.99,23.609 139.5,70.164 31.73,45.422 47.83,110.527 47.83,193.527 0,83.641 -16.1,148.93 -47.85,194.051 -32.51,46.199 -79.44,69.625 -139.48,69.625 z m 43.68,-432.301 c -14.43,-46.535 -36.44,-46.535 -43.68,-46.535 -7.63,0 -30.89,0 -44.93,46.469 -10.44,34.558 -15.73,92.312 -15.73,171.64 0,76 5.43,131.891 16.12,166.133 14.43,46.086 36.46,46.086 43.69,46.086 7.25,0 29.29,0 44.12,-46.621 10.99,-34.633 16.57,-91.34 16.57,-168.547 0,-77.265 -5.44,-133.996 -16.16,-168.625" /><path
         id="path36"
         style="fill:#151922;fill-opacity:1;fill-rule:nonzero;stroke:none"
         d="m 3298.4,399.891 c 1.65,-16.68 2.49,-30.899 2.49,-42.278 0,-28.902 -7.79,-52.879 -23.17,-71.258 -15.14,-18.085 -34.04,-26.886 -57.8,-26.886 -12.44,0 -24.43,3.066 -35.65,9.113 -11.14,6.008 -19.15,13.566 -24.48,23.106 -4.82,8.632 -8.88,17.558 -12.08,26.531 -3.18,8.851 -5.9,19.855 -8.07,32.695 -2.19,13.012 -3.73,28.488 -4.54,45.996 -0.75,16.028 -1.38,35.129 -1.88,56.899 h 227.46 v 10 c 0,29.461 -1.02,56.046 -3.01,79.043 -2.02,23.074 -5.4,43.656 -10.03,61.171 -4.7,17.688 -10.96,33.95 -18.6,48.352 -7.69,14.395 -17.28,27.98 -28.52,40.367 -12.23,13.473 -27.8,24.235 -46.29,32.008 -18.39,7.684 -37.48,11.582 -56.76,11.582 -28.72,0 -55.43,-6.887 -79.41,-20.469 -23.81,-13.488 -44.31,-32.718 -60.9,-57.168 -16.37,-24.105 -29.22,-53.238 -38.21,-86.586 -8.93,-33.117 -13.46,-70.546 -13.46,-111.25 0,-79.269 17.08,-141.535 50.76,-185.089 34.3,-44.325 83.52,-66.805 146.3,-66.805 33.09,0 62.14,6.512 86.36,19.363 24.61,13.067 43.27,31.887 55.48,55.996 6.58,13.211 11.29,27.332 14,41.985 2.64,14.285 4.49,33.711 5.66,59.363 l 0.34,7.629 -67.49,21.773 z m -104.72,283.988 c 6.81,0 27.56,0 40.68,-42.035 4.33,-14.403 7.64,-32.477 9.83,-53.696 2.03,-19.699 3.63,-45.558 4.74,-76.972 h -115.64 c 0.54,16.137 1.28,30.16 2.22,41.793 1.13,13.969 2.26,25.984 3.39,36.07 1.1,9.891 2.34,18.188 3.69,24.684 1.34,6.531 2.85,12.722 4.39,18.054 5.74,17.481 13,30.938 21.58,39.981 7.76,8.156 15.98,12.121 25.12,12.121" /><path
         id="path38"
         style="fill:#151922;fill-opacity:1;fill-rule:nonzero;stroke:none"
         d="m 3699.54,901.379 c -7.59,-1.309 -14.76,-2.43 -21.49,-3.402 -6.55,-0.946 -13.39,-1.579 -20.36,-1.872 -7.11,-0.324 -16.46,-0.488 -28.56,-0.488 h -10 V 682.523 c -8.49,13.852 -17.32,24.676 -26.65,32.711 -17.03,14.649 -38.87,22.075 -64.93,22.075 -39.11,0 -73.04,-17.457 -100.77,-51.758 -36.92,-44.254 -55.64,-115.547 -55.64,-211.899 0,-83.285 12.66,-148.429 37.63,-193.625 26.04,-47.16 64.3,-71.062 113.71,-71.062 12.94,0 24.84,1.055 35.4,3.144 10.98,2.196 21.17,6.082 30.27,11.563 8.96,5.398 17.52,12.441 25.44,20.937 1.82,1.961 3.67,4.051 5.54,6.289 v -31.117 h 121.57 v 688.414 l -11.61,-1.898 c -11.99,-1.953 -21.82,-3.609 -29.55,-4.918 z M 3597.68,643.613 c 4.67,-7.824 8.5,-16.226 11.36,-24.961 2.89,-8.855 5.17,-20.101 6.77,-33.418 1.65,-13.718 2.91,-30.617 3.75,-50.222 0.84,-19.867 1.26,-44.313 1.26,-72.649 0,-27.238 -0.28,-50.578 -0.85,-69.355 -0.54,-17.785 -1.78,-32.871 -3.68,-44.836 -1.87,-11.766 -4.4,-21.809 -7.5,-29.863 -3.11,-8.106 -7.33,-16.2 -12.37,-23.809 -4.23,-5.984 -9.72,-10.957 -16.33,-14.773 -14.04,-8.157 -30.58,-7.446 -44.68,2.488 -7.84,5.488 -13.49,12.449 -17.47,21.672 -7.36,15.23 -12.46,35.574 -15.14,60.468 -2.77,25.555 -4.17,61.825 -4.17,107.809 0,71.922 5.11,124.707 15.19,156.906 13.46,43.024 34.06,43.024 40.82,43.024 7.73,0 15.26,-2.383 23.01,-7.297 7.89,-4.981 14.63,-12.102 20.03,-21.184" /></g></g></svg>