<svg xmlns="http://www.w3.org/2000/svg" width="350" height="92.582" viewBox="0 0 350 92.582"><path fill="#F8EDDF" stroke="#F8EDDF" stroke-width="6" stroke-miterlimit="10" d="M158.202 56.285c-1.875 1.09-3.261 1.594-4.892 1.594-2.937 0-5.137-2.185-5.137-5.877 0-4.621 2.53-7.143 10.028-7.646v11.929h.001zm4.149 5.448h10.557v-1.177l-4.298-2.014.024-24.689c0-7.558-4.321-11.505-11.574-11.505-7.664 0-18.503 3.779-18.503 10.835 0 2.94 1.957 5.544 5.298 5.544 3.016 0 5.138-2.604 5.138-5.376 0-2.099-1.143-4.702-3.427-6.552a23.883 23.883 0 0 1 3.996-.335c6.764 0 8.64 3.36 8.64 8.148v7.728c-12.472.084-20.948 4.2-20.948 11.929 0 5.209 3.75 8.82 9.861 8.82 4.564 0 8.153-2.185 11.087-5.293l.406.17c.049 2.089 1.658 3.767 3.743 3.767zM284.49 4.201h11.568l-8.513 13.308h-6.573l3.518-13.308zm-34.853 6.671c0-3.687 2.896-6.673 6.475-6.673s6.478 2.986 6.478 6.673c0 3.685-2.898 6.673-6.478 6.673-3.581 0-6.475-2.988-6.475-6.673zm91.959 23.067c0-5.963-2.688-11.592-10.027-11.592-4.396 0-9.123 2.267-13.937 6.972l-.327-.168-.021-5.544h-14.415v1.166l4.66 2.313v31.468l-4.303 2.018v1.176h18.215V60.57l-3.484-2.018V30.749c2.771-1.177 4.566-1.598 7.418-1.598 4.646 0 5.787 3.445 5.787 8.15v21.251l-4.07 2.018v1.176H345.9V60.57l-4.303-2.018V33.939h-.001zm-90.213-6.844v31.458l-4.544 2.018v1.177h19.278V60.57l-4.303-2.018V23.606h-15.166v1.187l4.735 2.302zm-125.49 16.624c0 11.847-3.831 16.211-7.987 16.211-3.587 0-5.708-1.507-7.664-4.617V29.018c2.037-.503 3.83-.755 5.543-.755 6.522 0 10.108 4.704 10.108 15.456zM99.81 78.253l-4.299 2.019v1.091h19.845v-1.091l-5.114-2.019V62.119c1.712.334 3.425.502 5.054.502 13.775 0 21.762-10.164 21.762-21.507 0-11.591-6.521-19.235-14.427-19.235-4.809 0-9.618 2.855-12.631 5.797l-.329-.168.003-3.9H95.166v1.178l4.625 2.27.019 51.197zm193.251-36.046c0 10.501-2.525 17.641-8.395 17.641-5.87 0-8.396-7.14-8.396-17.641 0-10.499 2.524-17.64 8.396-17.64 5.868.001 8.395 7.141 8.395 17.64zm11.168 0c0-10.751-5.949-20.328-19.072-20.328-13.043 0-20.053 10.248-20.053 20.328 0 10.837 5.949 20.414 19.076 20.414 13.12 0 20.049-10.33 20.049-20.414zm-57.178 7.646c0-7.309-5.706-9.91-11.006-12.096-4.646-1.931-9.044-3.612-9.044-7.896 0-2.521 1.79-5.125 4.966-5.125 3.918 0 6.033 2.604 10.927 9.408l1.627-.335-.242-10.418c-2.284-.841-7.012-1.511-10.188-1.511-8.801 0-15.158 5.46-15.158 12.096 0 7.392 5.702 9.997 11.004 12.268 4.644 1.927 8.967 3.608 8.967 7.812 0 3.359-1.959 5.708-5.217 5.708-4.24 0-7.254-2.769-13.205-11.085l-1.631.165.242 11.508c3.756 1.515 7.911 2.271 12.801 2.271 7.819-.002 15.157-4.957 15.157-12.77zm-34.007-15.914c0-5.963-2.691-11.592-10.027-11.592-4.402 0-9.134 2.267-13.938 6.972l-.327-.168-.021-5.544h-14.417v1.166l4.658 2.313v31.468l-4.3 2.004v1.188h18.216V60.57l-3.486-2.016V30.749c2.772-1.177 4.567-1.598 7.422-1.598 4.646 0 5.787 3.445 5.787 8.15v21.251l-3.482 2.018v1.176h18.215V60.57l-4.297-2.018-.003-24.613zM76.211 37.553l-6.355-11.089 3.646-1.679v-1.178H53.736v1.178l3.891 1.679L69.61 44.693l-11.085 13.61-4.301 2.27v1.177H67.63v-1.177l-3.32-1.85 7.254-11.007 6.603 11.091-3.893 1.766v1.177h20.012v-1.177l-3.894-1.766-12.386-18.316 10.678-13.438 4.624-2.269v-1.178h-13.65v1.178l3.155 1.931-6.602 10.838zM50.76 4.172H4.41v1.537l7.038 2.168v50.16L4.41 60.208v1.537H52.6l1.667-18.711-1.667-.36-7.104 9.396c-2.893 3.803-5.788 5.696-10.698 5.969l-10.788.541V34.902h2.982c5 0 6.928 1.811 9.032 7.411l1.055 2.805h1.841V20.8h-1.841l-1.055 2.984c-2.016 5.604-4.032 7.413-9.032 7.413H24.01V7.245l7.981.361c6.137.271 8.331 1.896 11.488 6.508l6.841 9.94 1.667-.453L50.76 4.172z"/><path fill="#171614" d="M158.021 56.697c-1.875 1.092-3.26 1.596-4.893 1.596-2.935 0-5.136-2.187-5.136-5.879 0-4.619 2.531-7.141 10.027-7.646l.002 11.929zm4.15 5.448h10.559v-1.176l-4.299-2.013.023-24.69c0-7.559-4.322-11.507-11.575-11.507-7.664 0-18.503 3.779-18.503 10.835 0 2.94 1.957 5.544 5.298 5.544 3.017 0 5.139-2.604 5.139-5.376 0-2.1-1.144-4.702-3.427-6.552a23.772 23.772 0 0 1 3.994-.335c6.766 0 8.641 3.358 8.641 8.146v7.727c-12.473.085-20.948 4.203-20.948 11.931 0 5.208 3.75 8.818 9.861 8.818 4.564 0 8.152-2.185 11.086-5.291l.405.168c.054 2.094 1.663 3.771 3.746 3.771zM284.313 4.613h11.568l-8.511 13.31h-6.574l3.517-13.31zm-34.856 6.671c0-3.687 2.896-6.674 6.476-6.674s6.478 2.987 6.478 6.674c0 3.685-2.898 6.674-6.478 6.674s-6.476-2.99-6.476-6.674zm91.959 23.066c0-5.963-2.688-11.591-10.026-11.591-4.396 0-9.123 2.267-13.937 6.973l-.326-.169-.021-5.544H302.69v1.167l4.66 2.313v31.47l-4.303 2.015v1.176h18.217v-1.176l-3.486-2.015v-27.81c2.772-1.176 4.568-1.598 7.418-1.598 4.65 0 5.789 3.445 5.789 8.15v21.253l-4.072 2.016v1.175h18.808V60.98l-4.304-2.016V34.35h-.001zm-90.212-6.844v31.46l-4.543 2.016v1.176h19.276v-1.176l-4.304-2.016V24.017H246.47v1.188l4.734 2.301zM125.716 44.13c0 11.846-3.83 16.211-7.986 16.211-3.587 0-5.708-1.508-7.664-4.616V29.43c2.037-.503 3.83-.755 5.542-.755 6.521 0 10.108 4.702 10.108 15.455zM99.632 78.664l-4.298 2.018v1.093h19.846v-1.093l-5.113-2.018V62.528a26.49 26.49 0 0 0 5.054.505c13.775 0 21.761-10.166 21.761-21.507 0-11.591-6.52-19.235-14.425-19.235-4.808 0-9.617 2.855-12.632 5.797l-.328-.167.004-3.901H94.987v1.177l4.625 2.271.02 51.196zm193.252-36.047c0 10.501-2.525 17.64-8.396 17.64s-8.395-7.139-8.395-17.64c0-10.498 2.523-17.639 8.395-17.639 5.869.001 8.396 7.141 8.396 17.639zm11.167 0c0-10.75-5.948-20.327-19.071-20.327-13.043 0-20.055 10.25-20.055 20.327 0 10.837 5.949 20.416 19.076 20.416 13.12 0 20.05-10.332 20.05-20.416zm-57.179 7.647c0-7.309-5.706-9.911-11.007-12.097-4.646-1.932-9.043-3.613-9.043-7.896 0-2.521 1.789-5.125 4.967-5.125 3.919 0 6.033 2.604 10.924 9.408l1.63-.335-.243-10.417c-2.285-.839-7.012-1.511-10.188-1.511-8.804 0-15.159 5.46-15.159 12.098 0 7.391 5.702 9.998 11.003 12.266 4.645 1.931 8.969 3.61 8.969 7.813 0 3.359-1.959 5.709-5.219 5.709-4.238 0-7.252-2.77-13.206-11.086l-1.631.164.244 11.511c3.753 1.513 7.912 2.271 12.801 2.271 7.821-.004 15.158-4.961 15.158-12.773zM212.865 34.35c0-5.963-2.692-11.591-10.029-11.591-4.399 0-9.13 2.267-13.936 6.973l-.326-.169-.021-5.544h-14.419v1.167l4.658 2.313v31.47l-4.299 2.003v1.188h18.215v-1.177l-3.485-2.015V31.159c2.773-1.176 4.566-1.598 7.422-1.598 4.645 0 5.785 3.445 5.785 8.15v21.253l-3.48 2.016v1.175h18.214V60.98l-4.297-2.016-.002-24.614zM76.033 37.964l-6.355-11.088 3.646-1.681v-1.177H53.557v1.177l3.892 1.681 11.982 18.228-11.085 13.608-4.302 2.27v1.176h13.408v-1.176l-3.322-1.848 7.255-11.01 6.603 11.092-3.892 1.766v1.176h20.01v-1.176l-3.894-1.766-12.384-18.314 10.678-13.438 4.623-2.271v-1.177h-13.65v1.177l3.156 1.931-6.602 10.84zM50.581 4.583H4.232v1.536l7.038 2.168v50.162l-7.038 2.17v1.534h48.189l1.667-18.709-1.667-.357-7.104 9.396c-2.894 3.802-5.788 5.696-10.696 5.968l-10.788.539V35.313h2.983c4.999 0 6.927 1.812 9.032 7.413l1.054 2.803h1.842V21.212h-1.842l-1.054 2.983c-2.017 5.604-4.034 7.413-9.032 7.413h-2.983V7.656l7.981.361c6.139.271 8.331 1.896 11.488 6.508l6.841 9.938 1.667-.452-1.229-19.428z"/><path fill="none" d="M538.39-126.431v595.275"/></svg>