<svg width="49" height="48" viewBox="0 0 49 48" fill="none" xmlns="http://www.w3.org/2000/svg">
<path fill-rule="evenodd" clip-rule="evenodd" d="M24.8553 0.062044C31.1338 0.721452 34.0864 7.65833 38.2844 12.3733C42.0735 16.629 46.9649 20.1622 47.7735 25.8025C48.6885 32.185 47.4357 39.2667 42.7794 43.7267C38.182 48.1301 31.204 48.2214 24.8553 47.7541C19.0595 47.3274 13.7444 45.1163 9.38926 41.2685C4.69192 37.1185 0.226814 32.0668 0.00885842 25.8025C-0.214381 19.3864 3.81555 13.8406 8.27423 9.22152C12.833 4.49872 18.3271 -0.623578 24.8553 0.062044Z" fill="#03FF95"/>
<path d="M33.9199 18.62C33.8185 18.3757 33.6243 18.1815 33.3799 18.08C33.2597 18.0288 33.1306 18.0016 32.9999 18H27.9999C27.7347 18 27.4804 18.1054 27.2928 18.2929C27.1053 18.4804 26.9999 18.7348 26.9999 19C26.9999 19.2652 27.1053 19.5196 27.2928 19.7071C27.4804 19.8946 27.7347 20 27.9999 20H30.5899L24.9999 25.59L21.7099 22.29C21.617 22.1963 21.5064 22.1219 21.3845 22.0711C21.2627 22.0203 21.132 21.9942 20.9999 21.9942C20.8679 21.9942 20.7372 22.0203 20.6154 22.0711C20.4935 22.1219 20.3829 22.1963 20.2899 22.29L14.2899 28.29C14.1962 28.383 14.1218 28.4936 14.071 28.6154C14.0203 28.7373 13.9941 28.868 13.9941 29C13.9941 29.132 14.0203 29.2627 14.071 29.3846C14.1218 29.5064 14.1962 29.617 14.2899 29.71C14.3829 29.8037 14.4935 29.8781 14.6154 29.9289C14.7372 29.9797 14.8679 30.0058 14.9999 30.0058C15.132 30.0058 15.2627 29.9797 15.3845 29.9289C15.5064 29.8781 15.617 29.8037 15.7099 29.71L20.9999 24.41L24.2899 27.71C24.3829 27.8037 24.4935 27.8781 24.6154 27.9289C24.7372 27.9797 24.8679 28.0058 24.9999 28.0058C25.132 28.0058 25.2627 27.9797 25.3845 27.9289C25.5064 27.8781 25.617 27.8037 25.7099 27.71L31.9999 21.41V24C31.9999 24.2652 32.1053 24.5196 32.2928 24.7071C32.4804 24.8946 32.7347 25 32.9999 25C33.2652 25 33.5195 24.8946 33.707 24.7071C33.8946 24.5196 33.9999 24.2652 33.9999 24V19C33.9984 18.8693 33.9712 18.7402 33.9199 18.62Z" fill="black"/>
</svg>
