<svg width="49" height="48" viewBox="0 0 49 48" fill="none" xmlns="http://www.w3.org/2000/svg">
<path fill-rule="evenodd" clip-rule="evenodd" d="M24.8553 0.062044C31.1338 0.721452 34.0864 7.65833 38.2844 12.3733C42.0735 16.629 46.9649 20.1622 47.7735 25.8025C48.6885 32.185 47.4357 39.2667 42.7794 43.7267C38.182 48.1301 31.204 48.2214 24.8553 47.7541C19.0595 47.3274 13.7444 45.1163 9.38926 41.2685C4.69192 37.1185 0.226814 32.0668 0.00885842 25.8025C-0.214381 19.3864 3.81555 13.8406 8.27423 9.22152C12.833 4.49872 18.3271 -0.623578 24.8553 0.062044Z" fill="#03FF95"/>
<path fill-rule="evenodd" clip-rule="evenodd" d="M22.5095 11.0313C20.7039 11.0976 18.5796 11.2735 17.2305 11.4686C14.171 11.9108 12.5503 12.5441 12.1164 13.4668L12.0015 13.7112L12.001 20.5822C12.0005 28.4205 11.9612 27.7332 12.4368 28.2056C12.8906 28.6563 13.6883 29.0122 14.9558 29.3294C15.6399 29.5007 15.8626 29.5016 16.098 29.3339C16.38 29.1332 16.3996 29.0239 16.3996 27.6553V26.4129L17.0961 26.3044C17.4792 26.2448 18.1446 26.155 18.5747 26.1049C19.3013 26.0202 19.3612 26.0194 19.4188 26.0945C19.4529 26.139 19.5956 26.3513 19.7359 26.5662C20.201 27.279 20.9725 27.9923 21.7265 28.4068C22.019 28.5676 22.0207 28.5698 22.0205 28.7894L22.0203 29.0103L21.3061 29.2531C20.1379 29.6502 19.4317 30.0503 18.7013 30.7289C17.5139 31.8319 16.7669 33.4652 16.729 35.0409C16.7162 35.5721 16.7559 35.6767 17.0538 35.8992C17.1888 36 17.1919 36 24.5135 36C31.8351 36 31.8382 36 31.9731 35.8992C32.2711 35.6767 32.3108 35.5721 32.2979 35.0409C32.2509 33.0831 31.1738 31.1827 29.4804 30.0696C28.9267 29.7057 28.5345 29.5255 27.6405 29.2243L27.0063 29.0106V28.7895C27.0063 28.5698 27.0081 28.5676 27.3005 28.4068C28.0535 27.9928 28.8325 27.2702 29.3019 26.55C29.4362 26.344 29.5741 26.1384 29.6082 26.0933C29.6662 26.0166 29.7193 26.0171 30.4278 26.0997C30.8445 26.1483 31.5099 26.2386 31.9064 26.3005L32.6274 26.4129V27.6553C32.6274 29.0239 32.647 29.1332 32.929 29.3339C33.1644 29.5016 33.3871 29.5007 34.0712 29.3294C35.3389 29.0122 36.1361 28.6564 36.591 28.2051C37.0678 27.7319 37.0297 28.4238 37.015 20.5274L37.002 13.6135L36.8951 13.4135C36.4355 12.5549 34.8965 11.941 32.1386 11.5164C29.551 11.1179 25.5883 10.9183 22.5095 11.0313ZM27.9839 12.5614C30.628 12.7396 32.6079 13.0184 34.0635 13.4173C34.7668 13.6101 35.4584 13.9058 35.3827 13.9815C35.276 14.0882 34.4679 14.3768 33.7567 14.5623C32.9571 14.7707 32.8197 14.8454 32.6944 15.1394C32.6392 15.2691 32.6274 16.1426 32.6274 20.1167V24.9367L32.493 24.9085C32.2861 24.8651 31.0773 24.6968 30.7211 24.6618C30.1284 24.6035 30.1429 24.6112 30.1847 24.3767C30.2049 24.2637 30.2364 24.0449 30.2548 23.8903C30.2859 23.6284 30.2969 23.6092 30.4159 23.6092C30.6599 23.6092 30.952 23.4237 31.0603 23.1998C31.1576 22.9989 31.161 22.9141 31.161 20.7043C31.161 18.4732 31.1585 18.4125 31.0587 18.2348C30.9173 17.9832 30.7116 17.8755 30.312 17.8437L29.9762 17.8171L29.7969 17.4005C29.1667 15.9363 27.8353 14.7159 26.3396 14.2314C25.6479 14.0074 25.2909 13.9554 24.4646 13.9583C23.8148 13.9606 23.6332 13.9793 23.1883 14.0901C22.0726 14.368 21.222 14.8563 20.4077 15.6863C19.8387 16.2663 19.4207 16.8872 19.1966 17.4851L19.0635 17.8404L18.7735 17.841C18.3908 17.8416 18.1144 17.9749 17.9727 18.227C17.8671 18.4148 17.866 18.4426 17.866 20.7254C17.866 23.0081 17.8671 23.0359 17.9727 23.2237C18.0876 23.4281 18.3875 23.6092 18.6111 23.6092C18.73 23.6092 18.741 23.6284 18.7722 23.8903C18.7906 24.0449 18.8222 24.2643 18.8425 24.3781C18.8789 24.5817 18.8772 24.5851 18.7271 24.6082C18.6433 24.621 18.1345 24.6882 17.5964 24.7574C17.0582 24.8266 16.5689 24.8961 16.5088 24.9118L16.3996 24.9403V20.1185C16.3996 16.1429 16.3878 15.2691 16.3326 15.1394C16.2073 14.8454 16.0699 14.7707 15.2703 14.5623C14.5591 14.3768 13.751 14.0882 13.6443 13.9815C13.5686 13.9058 14.2602 13.6101 14.9633 13.4174C16.6195 12.9634 19.084 12.647 22.0102 12.5126C23.1057 12.4622 26.9834 12.4939 27.9839 12.5614ZM25.2703 15.4721C26.4229 15.6731 27.4898 16.3852 28.1247 17.3771C28.2623 17.5922 28.3749 17.7847 28.3749 17.8048C28.3749 17.825 26.6373 17.8415 24.5135 17.8415C22.3897 17.8415 20.6521 17.8315 20.6521 17.8192C20.6521 17.7591 20.9834 17.246 21.19 16.9861C21.8046 16.2131 22.8328 15.6214 23.8615 15.4488C24.2503 15.3835 24.8159 15.3929 25.2703 15.4721ZM13.8852 15.6839C14.0987 15.7608 14.4219 15.863 14.6033 15.9111L14.9332 15.9986V21.9057C14.9332 25.1546 14.924 27.8128 14.9127 27.8128C14.8299 27.8128 13.9748 27.4813 13.7479 27.3613L13.4669 27.2126V21.3784C13.4669 18.1696 13.4737 15.5442 13.482 15.5442C13.4902 15.5442 13.6717 15.607 13.8852 15.6839ZM35.5601 21.3784V27.2126L35.2791 27.3613C35.0522 27.4813 34.1971 27.8128 34.1143 27.8128C34.103 27.8128 34.0938 25.1554 34.0938 21.9075V16.0023L34.5703 15.865C34.8325 15.7895 35.1459 15.6876 35.2668 15.6386C35.3878 15.5896 35.5033 15.5483 35.5235 15.5469C35.5436 15.5454 35.5601 18.1696 35.5601 21.3784ZM29.6947 20.7254V22.1428H28.0726H26.4505L25.689 21.3906C25.0815 20.7905 24.8856 20.6258 24.7205 20.5764C24.3354 20.461 24.196 20.5431 23.338 21.3906L22.5765 22.1428H20.9544H19.3323V20.7254V19.3079H24.5135H29.6947V20.7254ZM25.0764 22.8813C25.3731 23.1813 25.7007 23.4651 25.8088 23.5156C25.9854 23.5982 26.1402 23.6072 27.4096 23.6081C28.1825 23.6087 28.8148 23.6215 28.8148 23.6365C28.8148 23.8258 28.6744 24.4557 28.5594 24.7822C27.862 26.7625 25.8169 27.9666 23.7803 27.5961C21.8986 27.2537 20.5003 25.7716 20.2378 23.8414L20.2061 23.6092L21.6144 23.6081C22.8867 23.6072 23.0416 23.5982 23.2182 23.5156C23.3263 23.4651 23.6539 23.1813 23.9506 22.8813C24.2458 22.5827 24.4991 22.3384 24.5135 22.3384C24.5279 22.3384 24.7812 22.5827 25.0764 22.8813ZM23.3564 24.877C22.8836 25.0917 22.7824 25.6831 23.1546 26.0553C23.8152 26.7159 24.9379 26.7904 25.682 26.223C25.9711 26.0025 26.0856 25.8131 26.0896 25.5493C26.0953 25.1731 25.8438 24.875 25.4594 24.8024C25.308 24.7737 25.1838 24.8193 24.7006 25.0807C24.5023 25.1879 24.5042 25.1884 23.9777 24.9013C23.7168 24.7589 23.6245 24.7553 23.3564 24.877ZM24.5135 29.1081C24.7958 29.1081 25.1422 29.0926 25.2833 29.0737L25.54 29.0394L25.5397 29.3426C25.5393 29.7469 25.4688 29.9786 25.2811 30.1924C24.8676 30.6634 24.1594 30.6634 23.7459 30.1924C23.5582 29.9786 23.4877 29.7469 23.4873 29.3426L23.487 29.0394L23.7437 29.0737C23.8848 29.0926 24.2312 29.1081 24.5135 29.1081ZM22.3644 30.7803C22.7824 31.521 23.6437 32.0164 24.5135 32.0164C25.385 32.0164 26.2464 31.5177 26.6692 30.7685C26.7522 30.6214 26.8269 30.5011 26.8352 30.5011C26.9173 30.5011 27.9392 30.8912 28.2039 31.0235C29.1659 31.5047 29.9243 32.2805 30.3765 33.246C30.5603 33.6383 30.77 34.2915 30.77 34.4716C30.77 34.5539 30.4666 34.5581 24.5135 34.5581C18.4132 34.5581 18.257 34.5558 18.257 34.4658C18.257 34.2757 18.5086 33.5152 18.6918 33.1512C19.1536 32.2339 19.888 31.4961 20.7987 31.0343C21.0649 30.8993 22.0695 30.512 22.1749 30.5037C22.1925 30.5023 22.2778 30.6267 22.3644 30.7803Z" fill="black"/>
</svg>
