<svg width="49" height="48" viewBox="0 0 49 48" fill="none" xmlns="http://www.w3.org/2000/svg">
<path fill-rule="evenodd" clip-rule="evenodd" d="M24.8553 0.062044C31.1338 0.721452 34.0864 7.65833 38.2844 12.3733C42.0735 16.629 46.9649 20.1622 47.7735 25.8025C48.6885 32.185 47.4357 39.2667 42.7794 43.7267C38.182 48.1301 31.204 48.2214 24.8553 47.7541C19.0595 47.3274 13.7444 45.1163 9.38926 41.2685C4.69192 37.1185 0.226814 32.0668 0.00885842 25.8025C-0.214381 19.3864 3.81555 13.8406 8.27423 9.22152C12.833 4.49872 18.3271 -0.623578 24.8553 0.062044Z" fill="#03FF95"/>
<path fill-rule="evenodd" clip-rule="evenodd" d="M22.6573 9.11913C21.1586 9.52535 20.1331 10.6414 19.9209 12.0973C19.6716 13.8082 20.7686 15.9046 22.3053 16.654C23.6512 17.3102 25.0187 17.041 26.1659 15.8939C26.5965 15.4633 26.7442 15.254 27.0316 14.6676C27.6226 13.4612 27.7255 12.4125 27.3534 11.3874C26.9709 10.3335 26.2396 9.62895 25.0879 9.20452C24.4513 8.96991 23.3505 8.93128 22.6573 9.11913ZM24.2001 10.1407C25.1298 10.2889 25.874 10.8078 26.2191 11.5482C26.5506 12.2594 26.493 13.3428 26.0802 14.1615C25.5947 15.1245 24.5582 15.8788 23.7102 15.8862C22.6854 15.8952 21.5826 14.904 21.1797 13.6116C20.5932 11.7305 21.6499 10.2244 23.6587 10.0779C23.7146 10.0738 23.9582 10.1021 24.2001 10.1407ZM22.1362 17.1493C21.0874 17.2325 19.9917 17.3887 19.6647 17.5015C18.3697 17.9486 17.4362 18.7588 16.8834 19.9154C16.4724 20.7752 16.4211 21.0383 16.1779 23.5357C16.118 24.1498 15.9805 25.3983 15.8722 26.3102C15.7639 27.222 15.6749 28.0227 15.6745 28.0895C15.6741 28.1564 15.7485 28.2858 15.8399 28.3771C16.064 28.6014 16.4076 28.6013 16.6183 28.3771C16.7598 28.2264 16.7954 28.0346 16.9985 26.3301C17.1217 25.2956 17.2711 23.9011 17.3305 23.2312C17.4677 21.6844 17.5832 21.1308 17.9093 20.4567C18.3489 19.548 19.0069 18.937 19.9094 18.5993C21.0534 18.1712 25.5487 18.1088 27.1437 18.4989C28.3577 18.7957 29.302 19.6368 29.7228 20.7962C29.8909 21.2591 29.949 21.6384 30.1585 23.6372C30.3059 25.0428 30.6807 27.9638 30.7384 28.1565C30.7974 28.3534 31.0469 28.5433 31.2467 28.5433C31.3492 28.5433 31.5182 28.4702 31.6221 28.3808C31.8594 28.1766 31.8624 28.2574 31.5166 25.5658C31.366 24.3934 31.2097 23.0536 31.1692 22.5883C31.075 21.5044 30.896 20.7483 30.5706 20.0591C30.0717 19.0029 29.3298 18.2284 28.3633 17.755C27.4431 17.3042 26.5494 17.1751 24.1324 17.1439C23.2206 17.1321 22.3223 17.1346 22.1362 17.1493ZM19.4845 21.9121C19.4033 21.9449 19.3015 22.0375 19.2584 22.118C19.193 22.2402 18.7908 27.2535 18.7875 27.988C18.7854 28.4649 19.3334 28.7068 19.7002 28.391L19.877 28.2387L20.086 25.2752C20.3115 22.0771 20.3115 22.0793 19.9601 21.9191C19.7683 21.8317 19.6871 21.8305 19.4845 21.9121ZM27.3437 22.0101C27.1302 22.2235 27.1308 22.3003 27.3694 25.6142C27.5499 28.1207 27.5605 28.2055 27.7167 28.3718C27.9829 28.655 28.47 28.577 28.602 28.2299C28.6828 28.0172 28.2948 22.3521 28.1848 22.139C28.023 21.8258 27.5938 21.7599 27.3437 22.0101ZM23.5045 25.9107C23.4383 25.9492 22.9902 26.7681 22.5087 27.7303C21.9445 28.8583 21.5905 29.4919 21.5127 29.5135C21.4462 29.532 20.5848 29.6625 19.5986 29.8036C17.9023 30.0463 17.7952 30.07 17.6192 30.2439C17.2471 30.6113 17.2834 30.6685 18.8647 32.2066L20.3003 33.603L19.9833 35.4596C19.8089 36.4807 19.6662 37.3839 19.6662 37.4667C19.6662 37.6753 19.959 37.9493 20.1817 37.9493C20.2856 37.9493 21.0918 37.5681 22.0423 37.0696C22.9648 36.5858 23.7545 36.1899 23.7972 36.1899C23.8399 36.1899 24.6279 36.5858 25.5484 37.0696C26.5022 37.571 27.301 37.9493 27.4059 37.9493C27.6292 37.9493 27.9219 37.6755 27.9219 37.4667C27.9219 37.3839 27.7791 36.48 27.6046 35.458L27.2873 33.5998L28.6868 32.2388C29.6283 31.3231 30.0999 30.8168 30.1281 30.6913C30.1736 30.4883 30.0366 30.2173 29.8334 30.1086C29.7681 30.0737 28.9383 29.9344 27.9894 29.7991C27.0404 29.6639 26.1953 29.5385 26.1113 29.5205C25.9889 29.4943 25.7847 29.1402 25.0806 27.7329C24.5712 26.7148 24.1472 25.9483 24.0705 25.9072C23.9041 25.8181 23.6608 25.8196 23.5045 25.9107ZM24.487 29.0483C24.8823 29.84 25.2058 30.4048 25.2982 30.4645C25.3831 30.5193 26.0121 30.6425 26.7038 30.7399C27.3924 30.8368 28.0434 30.9335 28.1507 30.955C28.3407 30.993 28.318 31.0216 27.2428 32.0983C25.9518 33.3911 26.0485 33.0585 26.3917 35.026C26.5398 35.8754 26.5928 36.3248 26.5433 36.3117C26.5013 36.3005 25.9002 35.9945 25.2075 35.6316C24.5147 35.2687 23.8795 34.9719 23.7958 34.9719C23.7121 34.9719 23.0761 35.2687 22.3823 35.6316C21.6887 35.9945 21.0819 36.3015 21.0339 36.3138C20.974 36.3292 20.9582 36.2867 20.9837 36.1785C21.0862 35.7428 21.4255 33.6218 21.4256 33.4162C21.4256 33.2014 21.3271 33.0814 20.3341 32.087C19.2704 31.0218 19.2475 30.993 19.4374 30.9556C19.5447 30.9345 20.1957 30.8368 20.8843 30.7387C21.5728 30.6405 22.2053 30.5164 22.2899 30.4628C22.3834 30.4035 22.7015 29.8487 23.1011 29.0483C23.4628 28.3239 23.7746 27.7312 23.7941 27.7312C23.8136 27.7312 24.1254 28.3239 24.487 29.0483ZM12.6738 28.6297C12.5165 28.6821 12.383 28.9002 11.8208 30.0237L11.1542 31.3554L9.75061 31.5508C8.14326 31.7744 8 31.836 8 32.3037C8 32.5496 8.05414 32.6151 9.05646 33.5812L10.113 34.5997L9.88304 35.9531C9.75656 36.6974 9.65262 37.3764 9.65208 37.4618C9.6508 37.6732 9.94123 37.9493 10.1649 37.9493C10.2647 37.9493 10.9021 37.66 11.5815 37.3065C12.2607 36.9529 12.8537 36.6636 12.8991 36.6636C12.9444 36.6636 13.5036 36.9391 14.1415 37.2759C15.3993 37.9398 15.6 38.0116 15.8394 37.8835C16.1666 37.7084 16.1715 37.5736 15.9072 36.0295L15.6624 34.5997L16.7169 33.5714C17.6611 32.6507 17.7715 32.5194 17.7715 32.3177C17.7715 32.0182 17.6175 31.813 17.3485 31.7537C17.2275 31.727 16.5653 31.6257 15.8767 31.5284L14.6248 31.3515L13.982 30.0906C13.6284 29.3971 13.3001 28.7838 13.2524 28.7278C13.1376 28.5928 12.9036 28.5531 12.6738 28.6297ZM34.5754 28.5954C34.3613 28.6298 34.3132 28.704 33.6061 30.0897L32.9633 31.3497L31.5104 31.5646C29.9083 31.8016 29.8166 31.8412 29.8166 32.297C29.8166 32.491 29.941 32.64 30.8732 33.5634L31.9299 34.61L31.6828 36.0426C31.4235 37.5462 31.4247 37.647 31.7055 37.8626C31.9229 38.0294 32.1956 37.94 33.3903 37.3095C34.0572 36.9576 34.6298 36.6608 34.6629 36.6497C34.696 36.6388 35.2892 36.9266 35.9813 37.2895C36.6733 37.6524 37.3217 37.9493 37.4221 37.9493C37.6635 37.9493 37.9373 37.6713 37.9357 37.4279C37.935 37.3239 37.8308 36.645 37.7041 35.9192L37.4737 34.5997L38.5095 33.6033C39.0895 33.0455 39.5638 32.5338 39.5872 32.4407C39.6424 32.2209 39.5365 31.9573 39.3442 31.8355C39.2582 31.781 38.5736 31.6511 37.8106 31.5443L36.4324 31.3515L35.7672 30.0229C35.1992 28.8884 35.0744 28.6854 34.9124 28.633C34.8081 28.5993 34.6564 28.5824 34.5754 28.5954ZM13.3309 31.3008C13.5689 31.7753 13.8204 32.2143 13.8898 32.2762C13.9739 32.3514 14.3401 32.436 14.9924 32.5309C15.5295 32.6091 15.9786 32.6828 15.9905 32.6946C16.0023 32.7065 15.6771 33.042 15.2677 33.4402C14.4092 34.2752 14.4495 34.1426 14.6658 35.4227C14.7441 35.8864 14.7933 36.2808 14.7751 36.299C14.7569 36.3172 14.363 36.1327 13.8996 35.8888C13.4363 35.645 12.9836 35.4457 12.8937 35.4458C12.8037 35.4459 12.3495 35.6437 11.8842 35.8854C11.419 36.127 11.0149 36.3248 10.9863 36.325C10.9577 36.3251 10.9499 36.2568 10.9689 36.173C11.047 35.8302 11.2752 34.465 11.2752 34.3406C11.2752 34.2609 10.9687 33.896 10.5176 33.4389C10.101 33.0166 9.77964 32.6711 9.80339 32.6711C10.0847 32.6711 11.7441 32.3745 11.8477 32.3057C11.9236 32.2553 12.1827 31.8145 12.4235 31.326C12.6643 30.8377 12.8696 30.438 12.8798 30.438C12.89 30.438 13.093 30.8263 13.3309 31.3008ZM35.7659 32.3297C35.867 32.3838 37.5657 32.6711 37.7847 32.6711C37.8085 32.6711 37.4871 33.0166 37.0705 33.4389C36.6379 33.8773 36.3131 34.262 36.3133 34.3355C36.3135 34.4063 36.387 34.8754 36.4767 35.3779C36.5665 35.8803 36.6288 36.3025 36.6153 36.3161C36.6017 36.3297 36.2078 36.1394 35.74 35.8932C35.2721 35.647 34.8086 35.4455 34.7101 35.4455C34.6116 35.4455 34.1518 35.645 33.6885 35.8888C33.2252 36.1327 32.8312 36.3172 32.813 36.299C32.7948 36.2808 32.844 35.8864 32.9223 35.4227C33.1397 34.1361 33.1797 34.268 32.3201 33.4369C31.9105 33.0408 31.5853 32.707 31.5973 32.695C31.6093 32.6829 32.0586 32.6091 32.5958 32.5309C33.248 32.436 33.6142 32.3514 33.6984 32.2762C33.7677 32.2143 34.0228 31.7682 34.2652 31.2848L34.7058 30.4061L35.17 31.3327C35.4254 31.8423 35.6935 32.2909 35.7659 32.3297Z" fill="black"/>
</svg>
